<svg xmlns="http://www.w3.org/2000/svg" viewBox="0 0 408.8 332.1"><g id="Layer_2" data-name="Layer 2"><g id="Layer_1-2" data-name="Layer 1"><path d="M408.8,274.2c-3.5,10.2-10.9,14-21.3,13.3-4.1-.2-8.2,0-13,0l6.5,14c.7,1.6,1.6,3.1,2.2,4.7,2.1,5.7-1.8,10.7-7.8,10-4.1-.6-8.2-1.2-12.2-2.1s-4.9,0-6.3,3-3.4,5.7-5.1,8.5-3.8,6.7-8.3,6.5-6.2-3.9-7.9-7.4c-4.6-9.9-9.3-19.7-14.2-30.1-1,1.8-1.8,3.2-2.4,4.6-4.3,8.9-8.5,17.8-12.7,26.7-1.5,3.1-3.2,6-7.1,6.2s-6.1-2.5-7.9-5.6-4.1-6.3-5.7-9.6-3.2-3.4-6.1-2.8a52.7,52.7,0,0,1-11.8,1.8,12.2,12.2,0,0,1-7.4-2.5c-2.5-2-2-5.3-.6-8.1l6.5-13.7c.6-1.2,1-2.3,1.8-4.1H20.4a29,29,0,0,1-10.6-1.6C4,283.4.9,278.5.1,272.2,0,271,0,269.8,0,268.6Q0,143.8,0,19C0,12.5,1.6,6.6,7.4,3.2A26.4,26.4,0,0,1,19.1.2C31.3-.2,43.6.1,55.8.1H388.7c6.7,0,12.8,1.2,16.9,7.1a46.5,46.5,0,0,1,3.2,6.3Zm-43-5.3c2.4,6.6,2.4,6.6,9,6.6h13.9c7.1-.1,8.2-1.1,8.2-8.1V20.3c0-7.2-1-8.2-8-8.2H20.1c-7.1,0-8.1,1-8.1,8.1V267.4c0,1.2-.4,2.6.2,3.5s2.3,3.4,4,4.2,3.4.3,5.1.3H268.4c6.3,0,6.3,0,8.2-6.7-8.6-4.6-12.8-11.8-12.5-21.8a15.6,15.6,0,0,0-2.5-7.4c-4-7.5-3.9-14.7,0-22.1a22.8,22.8,0,0,0,2.5-9.5c.3-8.3,3.9-14.3,10.8-18.8a23.9,23.9,0,0,0,6.9-6.9c4.6-7.1,10.8-10.6,19.1-11.1a28.1,28.1,0,0,0,9.8-2.7,22.6,22.6,0,0,1,21-.1,29.8,29.8,0,0,0,10.2,2.8c8.1.6,14.3,4,18.7,11a23.9,23.9,0,0,0,6.9,6.9c7.1,4.6,10.6,10.8,11,19.2a23.6,23.6,0,0,0,2.4,9c4,7.6,4.1,14.9-.1,22.5-1.2,2.1-2.3,4.7-2.2,7C378.7,256.7,374.8,264.1,365.8,268.9Zm-44.6,10.7a33,33,0,0,0,5.1-1.8,25.2,25.2,0,0,1,14.8-4.1c4.2.1,7-2,9.5-5.4a51.9,51.9,0,0,1,10.2-10.2,13.8,13.8,0,0,0,5.8-10.3,43,43,0,0,1,3.5-13.2c1.9-4.3,2-7.8,0-12.1a43,43,0,0,1-3.5-13.2c-.4-4.7-2.3-7.7-6.1-10.5a42.1,42.1,0,0,1-9.6-9.7c-2.7-3.7-5.6-6-10.2-5.8a23.6,23.6,0,0,1-13.9-3.8,9.5,9.5,0,0,0-10.9,0,23.9,23.9,0,0,1-14,3.8c-4.6-.2-7.5,2.1-10.2,5.8a49,49,0,0,1-9.6,9.7c-3.8,2.7-5.7,5.7-6.1,10.4a40.3,40.3,0,0,1-3.5,13.2,13.2,13.2,0,0,0-.1,12.1,46.4,46.4,0,0,1,3.6,13.6,13.1,13.1,0,0,0,5.7,9.9,49.4,49.4,0,0,1,9.9,10,13.9,13.9,0,0,0,10.6,5.9c4.5.4,8.9,2.2,13.2,3.5C317.4,278,319.3,278.9,321.2,279.6Zm-35.8-.2c-3.8,7.8-7.3,15.3-11.2,23.4l9.3-1.4c4.2-.7,7.2.7,9.3,4.4s3.5,5.7,5.5,9L311,288c-3-.8-5.6-2.1-8.2-2.2C296.3,285.7,290.4,284.2,285.4,279.4Zm58.9,35.4c2.1-3.5,3.9-6.2,5.5-9.1a7.9,7.9,0,0,1,9-4.3l9.6,1.4c-3.9-8-7.4-15.5-11.3-23.6-5.2,5.5-11.5,6.4-18.1,6.7-2.4.1-4.7,1.4-7.4,2.3C336,297.3,340,305.8,344.3,314.8Z"/><path d="M368.1,70.6c-16.2-3.3-25.8-12.8-29.6-28.3H69c-3.5,15-12.9,24.5-28.1,28.1V217.1c15,3.6,24.5,12.9,28.1,28.3H238.4a17.3,17.3,0,0,1,5.1.5c2.9.9,4.7,3.3,3.9,6.1s-2.8,3.8-4.7,5.2-2.9.2-4.3.2H67.9c-7.8,0-9.4-1.4-10.8-9.1-1.9-10.6-8.7-17.3-19.2-19.2-7.6-1.3-9.1-3.1-9.1-10.8V69.5c0-7.9,1.4-9.7,8.9-11,10.9-2,17.5-8.6,19.4-19.5,1.4-7.4,3.1-8.9,10.6-8.9H339.6c7.6,0,9.6,1.7,10.8,9.2,1.7,10.5,8.9,17.7,19.5,19.2,9,1.3,10.2,2.7,10.2,11.8v98.8a21.3,21.3,0,0,1-.2,4.4,5.5,5.5,0,0,1-5.5,4.8c-3.3.1-5.3-1.6-6-4.7a16,16,0,0,1-.3-4.4V70.6Z"/><path d="M204.2,83H87.7c-3.2-.4-5.2-2.2-5.4-5.4s1.5-5.6,4.8-6.3a14.2,14.2,0,0,1,3.6-.3H318.2a18,18,0,0,1,4,.3c3.1.8,4.7,2.9,4.4,6.2s-2.2,5-5.4,5.4h-117Z"/><path d="M204.6,136.5H320.8c3.3.2,5.5,1.9,5.8,5.4s-1.7,5.8-5.2,6.4a26.7,26.7,0,0,1-4,.1H91.5c-6.5,0-9.4-1.9-9.3-6.1s2.8-5.9,9.1-5.9Z"/><path d="M233.6,115.7h-83a21.2,21.2,0,0,1-4.4-.3c-3.3-.7-5.1-2.9-4.8-6.3s2.3-5,5.5-5.3a21.7,21.7,0,0,1,3.6-.1H320.9c3.3.3,5.4,2.1,5.7,5.5s-1.7,5.8-5.3,6.3a17,17,0,0,1-3.9.2Z"/><path d="M204.5,190.9H167.1a17.5,17.5,0,0,1-4-.3,5.5,5.5,0,0,1-4.6-5.7c0-3.1,1.8-5.2,5-5.8a12.7,12.7,0,0,1,2.8-.2h78.1c3.6.3,5.9,2.5,6,5.7s-2.3,5.9-6,6.2-5.8,0-8.8,0Z"/><path d="M103.9,103.7c4.9,0,9.9-.1,14.8,0s6.6,2.6,6.6,6a6.1,6.1,0,0,1-6.3,5.9c-10.3.2-20.5.2-30.7,0-3.8-.1-6.1-2.6-6.1-6s2.5-5.8,6.6-5.9S98.9,103.7,103.9,103.7Z"/><path d="M357.9,228.6A37.3,37.3,0,0,1,321,265.8c-20.2.2-37.5-17-37.4-37.3a37.7,37.7,0,0,1,37.1-37.3C340.9,190.9,358,208,357.9,228.6Zm-11.9-.2c-.1-13.9-11.5-25.3-25.2-25.2a25.6,25.6,0,0,0-25.2,25.3,25.2,25.2,0,1,0,50.4-.1Z"/></g></g></svg>