<svg xmlns="http://www.w3.org/2000/svg" viewBox="0 0 383.3 332.2"><g id="Layer_2" data-name="Layer 2"><g id="Layer_1-2" data-name="Layer 1"><path d="M383.3,266.4l-.3.3c-5.9,19.9-15.8,27.2-36.8,27.2H287.4v12.9c0,5.5,0,11,.1,16.5,0,3.5-.3,6.8-4.1,8.4s-6.1-.6-8.5-3l-20-20.2a76.3,76.3,0,0,1-5.3,6.6c-4.8,5-9.8,9.9-14.8,14.8-2,2-4.3,3-7.1,1.8s-4.1-3.4-4.1-6.5c.1-10.2,0-20.4,0-31l-4.9-.2H34.2c-16.4,0-28.9-8.8-32.9-23.4a34.6,34.6,0,0,1-1.2-9.6Q-.1,146.9,0,33C0,14,13.8,0,32.8,0H350.5c16.1,0,28.4,9.9,32.1,25.5a7.4,7.4,0,0,0,.7,2.1Zm-95.9,14.8h61.8c13.6,0,21.3-7.8,21.3-21.4V34c0-13.3-7.8-21.2-21.1-21.2H33.9c-13.3,0-21.1,7.8-21.1,21.1V260c0,13.3,7.8,21.1,21.1,21.1H219.5l4.1-.2V276c0-23.7.3-47.4-.1-71.1-.2-12.6,2.2-25.4-2.6-37.7-1-2.7-1.7-4.3-4.7-4.7-10.4-1.6-16.2-10.2-13.7-20.4.8-2.9.1-4.6-2.5-6.1-9-5.3-11-15.6-4.7-24.1,1.8-2.5,1.7-4.2-.1-6.6-6.3-8.5-4.2-18.6,4.9-24.1,2.4-1.4,3.2-3,2.5-5.8-2.6-10.6,3.1-19,14.1-20.7,2.5-.4,3.7-1.6,4.1-4,1.8-11.2,9.8-16.6,20.6-14.1,2.7.6,4.4-.1,5.9-2.6,5.4-9,15.6-11.1,24-4.8,2.4,1.7,4.2,1.8,6.7,0,8.4-6.3,18.6-4.3,24,4.8,1.6,2.6,3.4,3.2,6.2,2.5,10.2-2.5,18.9,3.4,20.3,13.7.4,2.8,1.6,4.1,4.4,4.5,10.7,1.6,16.3,10.1,13.9,20.6-.7,2.7-.1,4.4,2.4,5.9,9.3,5.6,11.2,15.5,4.8,24.3-1.7,2.4-1.6,4.1.1,6.3,6.3,8.7,4.3,18.7-5,24.3-2.4,1.5-3,3.1-2.4,5.6,2.5,11.1-2.8,18.9-13.9,20.9-1.3.2-3.3,1.1-3.6,2.1-1.4,4.6-3.3,9.3-3.3,13.9-.3,26.7-.2,53.4-.2,80.1,0,1.2.1,2.5,0,3.7-.6,5.1-5.9,7.6-10.1,4.6a19.6,19.6,0,0,1-3-2.8l-19.1-19.1c-2.2,2.9-5.6,5.5-5.8,8.2C287,262.4,287.4,271.5,287.4,281.2ZM214.7,146c0,2.5.8,3.3,3.8,3.9,9,1.8,13.4,6,14.8,14.9.6,3.2,2.1,4.2,5.2,3.6,9.5-1.8,14.4.2,19.6,8.2,1.6,2.5,3.4,2.9,5.9,1.2,8.1-5.5,13.1-5.5,21.5.1,2.3,1.6,4.2,1.3,5.6-1.1,4.5-7.9,11.1-10.7,19.9-8.4,2.8.7,4.5-.3,5-3.4,1.5-9,5.8-13.4,14.6-15,3.9-.8,4.6-1.8,3.7-5.7-1.9-8.1.7-14.4,7.8-18.8,3.4-2.1,3.6-3.4,1.4-6.6-5.1-7.1-5-13.4.1-20.6,2.1-3.1,1.8-4.4-1.3-6.4-7.4-4.7-9.9-10.7-8-19,.9-3.8.1-5-3.8-5.6-8-1.2-13.2-6.3-14.5-14.4-.7-4.1-1.6-4.7-5.7-3.8-7.9,1.9-14.4-.8-18.7-7.6-2.2-3.7-3.4-3.9-6.7-1.6-6.9,4.9-13.6,4.9-20.4,0-3.3-2.3-4.6-2-6.6,1.3C253.4,48.3,247,51,239,49.1c-4.1-.9-4.9-.4-5.7,3.9-1.5,8.2-6.4,13-14.5,14.3-3.8.6-4.6,1.8-3.7,5.7,1.8,8.2-.7,14.4-7.8,18.8-3.4,2.1-3.7,3.4-1.4,6.5,4.9,6.9,5,13.6.2,20.4-2.5,3.5-2.3,4.7,1.2,6.9,7,4.3,9.6,10.6,7.8,18.5C215,144.8,214.8,145.5,214.7,146Zm59.8,118.9c-2.9,3-5.8,4.4-9.3,2.5s-3.3-5.5-3.3-8.8V191.9c-8.1-1.1-10.9-2.9-15.1-9.1a5,5,0,0,0-3.7-2.3c-2.2,0-4.4.8-6.3,1.2V310.3l12.6-12.9c4.7-4.8,7.6-4.8,12.3,0s8.1,8.3,12.8,13.2Zm38.3-83.3a18.1,18.1,0,0,1-2.2-.4c-4.5-1.6-7.3-.3-10,4-4.6,7.3-14.7,8.5-21.9,3.6l-3.7-2.5v60.1l12.6-12.8c4.8-4.8,7.6-4.8,12.5.1l8,7.9c1.4,1.4,2.8,2.9,4.7,4.7Z"/><path d="M38.3,146.9V85.1c0-20.4,13.5-34,34-34H182.7a13.9,13.9,0,0,1,4.1.4c3.2.8,4.9,3,4.7,6.3a5.8,5.8,0,0,1-5.1,5.9,40.2,40.2,0,0,1-4.9.2H72.6c-6,0-11.4,1.2-15.8,5.5S51,78.6,51,84.3q0,62.6.1,125c0,12.7,7.9,20.6,20.5,20.6H188.4a18.4,18.4,0,0,1,5.2.5,5.7,5.7,0,0,1,4.3,6.5,5.9,5.9,0,0,1-5.2,5.6h-3.4c-39.2,0-78.3.1-117.5,0-16.3,0-28.7-9.2-32.4-24.1a41.4,41.4,0,0,1-1.1-10C38.2,188.1,38.3,167.5,38.3,146.9Z"/><path d="M128.2,207.1c-7.4,5.5-15.4,6.5-28.6-5.6-4.9,7.3-11.9,11.9-20,15-4,1.5-7.3.3-8.8-3.2s0-6.7,3.8-8.5l1.7-.7c2.4-1.4,4.8-2.6,7.1-4.1,5-3.2,7.4-7.9,7.8-13.8.3-4.4,2.1-6.9,5.5-7.2s6,1.8,7.2,5.2a25.1,25.1,0,0,0,10.2,12.5c3.8,2.5,5.3,1.9,6-2.4s2.1-5.1,5.1-5.7,5.3,1,7.2,3.5,4.2,4.5,6.7,5.3c10.5,3.1,21.2,5.7,32.3,5.5,4.6-.1,7.5,2.7,7.4,6.5s-3,6.1-7.4,6.2C156.5,215.7,142.3,212.3,128.2,207.1Z"/><path d="M121.3,140.6H165c4.6,0,7.3,2.3,7.3,6.2s-2.4,6.4-6.6,6.5-8.7.1-13,.1H78.6a11.7,11.7,0,0,1-5.3-1.1,5.7,5.7,0,0,1-2.7-7.1c1-3.1,3.3-4.5,6.6-4.5h44.1Z"/><path d="M121.2,115.1H165c3.3,0,5.9,1,7.1,4.3a6.1,6.1,0,0,1-4.1,8,16.8,16.8,0,0,1-4.5.4H76.8c-4-.3-6.6-3-6.5-6.7s2.8-6,6.8-6Z"/><path d="M121.4,102.3H79.2a15.4,15.4,0,0,1-4.8-.6,6.3,6.3,0,0,1,1.1-12,19.4,19.4,0,0,1,3.4-.2h84.8a18.8,18.8,0,0,1,3.4.2,5.7,5.7,0,0,1,5.2,5.5c.3,3.2-1.1,5.6-4.3,6.6a15.6,15.6,0,0,1-4.4.5Z"/><path d="M274.7,159.7a51.1,51.1,0,1,1,51-50.8A51,51,0,0,1,274.7,159.7Zm-.1-12.8a38.3,38.3,0,1,0-38.2-38.4A38.1,38.1,0,0,0,274.6,146.9Z"/></g></g></svg>