<svg xmlns="http://www.w3.org/2000/svg" viewBox="0 0 157.4 154.5"><g id="Layer_2" data-name="Layer 2"><g id="Layer_1-2" data-name="Layer 1"><path d="M157.4,108.3c-.7,1.5-2,1.9-3.7,1.9H107.6c-.8,1.9-.3,3.3,1.4,4.8a70.3,70.3,0,0,1,10.2,12.2l1.8,2.2c1.8,2.3,1.2,4.3-1.7,5l-13.4,3.1a3.3,3.3,0,0,0-2.4,2c-1.7,4.2-3.6,8.4-5.4,12.6s-3.3,3.2-5.4.8L79.9,137.6,78.5,136c-.4.6-.6,1.1-.9,1.5-4.3,5.1-8.5,10.2-12.8,15.2a6.9,6.9,0,0,1-1.8,1.6c-1.4.6-2.8-.2-3.5-1.9-1.9-4.3-3.8-8.6-5.6-13a3.3,3.3,0,0,0-2.3-1.8l-13.2-3.2c-3.3-.7-3.9-2.6-1.8-5.2,4.1-5,8.2-9.9,12.4-14.7,1.1-1.3,1.6-2.5.8-4.3H3.9c-3.2,0-3.9-.8-3.9-3.9V3.9C0,.8.7,0,3.9,0H153.6c1.7,0,3.1.3,3.8,1.9ZM5.3,5.3v99.5H49.9a29.1,29.1,0,0,1,26.9-26,27.9,27.9,0,0,1,18.9,5.5c6.9,5,10.7,12,11.8,20.6h44.6V5.3ZM78.7,131.1a23.6,23.6,0,1,0-23.6-23.5A23.6,23.6,0,0,0,78.7,131.1Zm-6.5,4.6a29.6,29.6,0,0,1-20.1-16.8L42.8,130l1.3.4,10.6,2.5a4,4,0,0,1,3.2,2.7c1,2.4,2.1,4.9,3.2,7.3s1.1,2.6,1.7,4Zm22.4,11.2c1.7-3.8,3.3-7.4,4.8-11.1a4.4,4.4,0,0,1,3.5-2.9l10.5-2.5,1.2-.5-9.3-11a29.5,29.5,0,0,1-20.1,16.8Z"/><path d="M31.6,49.8V44.7h94.3v5.1Z"/><path d="M47.3,34V29H110v5Z"/><path d="M10.5,86.7h5.2v7.7h7.9v5.3H13.3a2.6,2.6,0,0,1-2.8-2.6C10.4,93.6,10.5,90.2,10.5,86.7Z"/><path d="M133.8,99.7V94.5h7.8V86.7h5.3c0,3.6.1,7.2-.1,10.7a2.2,2.2,0,0,1-2.3,2.2Z"/><path d="M23.6,10.5v5.2H15.8v7.8H10.5c0-3.5-.1-7,0-10.5a2.6,2.6,0,0,1,2.6-2.5Z"/><path d="M141.7,23.5V15.8h-7.8V10.5h10.2a2.6,2.6,0,0,1,2.8,2.8c.1,3.3,0,6.7,0,10.2Z"/><path d="M78.7,125.9a18.4,18.4,0,1,1,18.4-18.4A18.4,18.4,0,0,1,78.7,125.9Zm-.1-5.3a13.1,13.1,0,1,0-13-13.1A13.1,13.1,0,0,0,78.6,120.6Z"/></g></g></svg>