<svg xmlns="http://www.w3.org/2000/svg" viewBox="0 0 979 688"><defs><style>.cls-1,.cls-4{stroke:#000;stroke-miterlimit:10;}.cls-2{font-size:18.49px;fill:#fff;letter-spacing:-0.07em;}.cls-2,.cls-5,.cls-7,.cls-8,.cls-9{font-family:Helvetica-Bold, Helvetica;font-weight:700;}.cls-3{letter-spacing:0em;}.cls-4{fill:none;}.cls-5{font-size:40.88px;}.cls-6{letter-spacing:-0.02em;}.cls-7{font-size:17.76px;}.cls-8{font-size:8.17px;}.cls-9{font-size:8.44px;}.cls-10{letter-spacing:-0.02em;}</style></defs><g id="Layer_2" data-name="Layer 2"><g id="Layer_1-2" data-name="Layer 1"><rect class="cls-1" x="15.1" y="177" width="121.5" height="27.09" rx="13.5"/><text class="cls-2" transform="translate(22.6 197.6)">P<tspan class="cls-3" x="11" y="0">ARTS LIST</tspan></text><path d="M103.8,23.5h.6l1.8,1.1,54.4,31.6a2.6,2.6,0,0,1,1.6,2.5v64c0,1.8-.2,1.9-1.8,1L141,112.9a2.7,2.7,0,0,1-1.5-2.7V86.1c0-1.9-.6-2.3-2.3-1.3L111.7,99.5a3.6,3.6,0,0,0-1.9,3.3v29.5c0,2.3.6,2.6,2.6,1.4l20.5-11.9a2.4,2.4,0,0,1,2.7,0l19.7,11.4c1.4.9,1.4,1,0,1.8q-27.7,16.2-55.7,32.2a2.3,2.3,0,0,1-2.6,0L41.6,135.1c-1.6-1-1.6-1,0-1.9l19.3-11.3a2.6,2.6,0,0,1,3,0l20.6,11.9c1.7,1,2.1.7,2.1-1.3,0-9.9-.1-19.8,0-29.7a3.9,3.9,0,0,0-2.2-3.7c-8.3-4.7-16.5-9.5-24.7-14.3-2.1-1.2-2.8-.8-2.8,1.6,0,7.8-.1,15.7,0,23.5a2.8,2.8,0,0,1-1.6,2.7L36.2,123.7l-1,.6c-.5.3-.9.1-1-.5V59.1a3,3,0,0,1,1.7-3L78.1,31.9l14.5-8.4h.5c0,.5.1,1,.1,1.5V47.7a2.6,2.6,0,0,1-1.5,2.7L71.2,62.2c-1.9,1.1-1.9,1.7,0,2.9L96.4,79.7a3.6,3.6,0,0,0,4.2-.1l21.2-12.2,4.5-2.7q1.7-1.1,0-2.1l-1.5-1L105.4,50.4a2.9,2.9,0,0,1-1.7-3c.1-4.5,0-9.1,0-13.6S103.8,26.9,103.8,23.5Z"/><rect class="cls-4" x="0.5" y="0.5" width="978" height="687" rx="12"/><text class="cls-5" transform="translate(187.9 115.7)">UNIT<tspan class="cls-6" x="95.4" y="0">Y</tspan></text><rect class="cls-4" x="15" y="212.8" width="845" height="36.24" rx="18.1"/><text class="cls-7" transform="translate(438.3 236.5)">C# </text><circle class="cls-4" cx="423" cy="230.6" r="7.4"/><text class="cls-8" transform="translate(421.1 232.2)">1</text><text class="cls-7" transform="translate(274.7 235.5)">3DS MAX</text><circle class="cls-4" cx="257.5" cy="228.9" r="7.6"/><text class="cls-9" transform="translate(255.5 230.5)">1</text><text class="cls-7" transform="translate(644.1 237.5)">BLENDER</text><circle class="cls-4" cx="626.9" cy="230.9" r="7.6"/><text class="cls-9" transform="translate(624.9 232.5)">1</text><text class="cls-7" transform="translate(534.8 234.5)">Json</text><circle class="cls-4" cx="517.5" cy="227.9" r="7.6"/><text class="cls-9" transform="translate(515.6 229.5)">1</text><text class="cls-7" transform="translate(109.7 235.9)">UNIT<tspan class="cls-10" x="41.4" y="0">Y</tspan></text><circle class="cls-4" cx="93.6" cy="227.9" r="7.6"/><text class="cls-9" transform="translate(91.7 229.5)">1</text></g></g></svg>