<svg xmlns="http://www.w3.org/2000/svg" viewBox="0 0 121.9 141.1"><g id="Layer_2" data-name="Layer 2"><g id="Layer_1-2" data-name="Layer 1"><path d="M61,0h5c2.3,0,2.3.1,2.3,2.2s.1,7,0,10.4c0,1.3.4,1.9,1.8,1.8,6.3-.7,12.5,4,12.4,10.6s0,16,0,24c.1,1.6-1,2.5-2,3.4a1.6,1.6,0,0,0-.3,2.4c3.3,5.7,6.7,11.4,9.9,17.2.7,1.2,1.2,1.2,2.1.2a41.4,41.4,0,0,0,11.3-25.7c.3-4.4.2-3.5,3.6-3.6s6.2.1,9.3,0c1.5-.1,2,.5,1.9,2A57.4,57.4,0,0,1,99.9,85.3a1.8,1.8,0,0,0-.5,2.8c6.1,10.4,12,21,18.2,31.3a23,23,0,0,1,3.8,13.4c-.1,2.3.3,4.7.4,7.1,0,.4.2.9-.2,1.1s-.8-.1-1.1-.3l-11.6-7.6a4.8,4.8,0,0,1-1.6-1.9l-20.1-35c-.7-1.2-1.2-1.4-2.5-.8-15.9,7-31.8,6.9-47.7-.1-1.1-.5-1.6-.3-2.3.8-6.7,11.8-13.6,23.6-20.4,35.4a3.7,3.7,0,0,1-1.3,1.7L1.6,140.6c-.4.2-.8.7-1.4.4s-.1-.8-.1-1.3c.2-4.4.5-8.8.7-13.2a5.7,5.7,0,0,1,.8-2.3L41.5,55.1c.7-1.2.8-2.1-.4-2.9s-1.8-2.5-1.8-4.3c.1-7.4,0-14.9.1-22.4A10.7,10.7,0,0,1,50.5,14.4c3.2-.1,3,.4,3-3.1V2.2c0-2.1.1-2.2,2.3-2.2Zm-.1,85.8a41.8,41.8,0,0,0,16.7-3.3c1-.4,1.3-.8.7-1.9-3.1-5.1-6-10.2-8.9-15.4-.5-.7-.8-.9-1.6-.3-4.5,3.2-9.2,3.2-13.8,0-.7-.6-1.1-.4-1.5.3-3,5.2-5.9,10.4-9,15.6-.5.9-.3,1.3.6,1.7A42.3,42.3,0,0,0,60.9,85.8Zm0-42.9a6.9,6.9,0,0,0,7-6.8A7,7,0,1,0,54,36,6.9,6.9,0,0,0,60.9,42.9Z"/></g></g></svg>