<svg xmlns="http://www.w3.org/2000/svg" viewBox="0 0 198.9 197.9"><defs><style>.cls-1,.cls-3{fill:none;stroke:#000;stroke-miterlimit:10;}.cls-1{stroke-width:2px;}.cls-2{font-size:12.86px;font-family:Helvetica-Bold, Helvetica;font-weight:700;}</style></defs><g id="Layer_2" data-name="Layer 2"><g id="Layer_1-2" data-name="Layer 1"><path d="M99.5,25.4h5.1c2.2.1,2.3.1,2.3,2.3V38.1c-.1,1.3.4,1.8,1.7,1.7a12,12,0,0,1,5.9.9,10.4,10.4,0,0,1,6.5,9.7c.1,8,0,16,.1,24,0,1.7-1,2.5-2,3.4a1.7,1.7,0,0,0-.4,2.5q5.1,8.5,9.9,17.1c.7,1.3,1.2,1.3,2.2.2A41.8,41.8,0,0,0,142,71.9c.3-4.3.3-3.5,3.7-3.5h9.2c1.5,0,2,.6,2,2.1a57.4,57.4,0,0,1-13.3,34.9,44.2,44.2,0,0,1-5.2,5.4,1.9,1.9,0,0,0-.4,2.8c6.1,10.5,11.9,21,18.2,31.3a23.6,23.6,0,0,1,3.7,13.4c0,2.4.3,4.8.4,7.2.1.4.2.8-.2,1.1s-.7-.2-1-.4l-11.7-7.6a4.7,4.7,0,0,1-1.5-1.9l-20.2-35c-.7-1.2-1.2-1.3-2.4-.8q-23.8,10.5-47.7,0c-1.2-.5-1.7-.4-2.4.7-6.7,11.9-13.5,23.7-20.3,35.5a5.4,5.4,0,0,1-1.4,1.6L40.1,166c-.4.3-.8.8-1.3.4s-.2-.8-.2-1.2c.3-4.4.5-8.8.8-13.2a4.8,4.8,0,0,1,.7-2.4L80,80.6c.7-1.3.8-2.1-.4-3a4.4,4.4,0,0,1-1.7-4.2V50.9c0-6.4,4.6-11,11.1-11.1,3.2,0,3.1.4,3.1-3.1s-.1-6,0-9,0-2.2,2.3-2.3Zm0,85.9a41.3,41.3,0,0,0,16.6-3.3c1.1-.4,1.3-.9.7-1.9l-8.9-15.4c-.4-.8-.8-.9-1.5-.4q-6.9,5-13.8,0c-.8-.5-1.1-.4-1.6.4-2.9,5.2-5.9,10.3-8.9,15.5-.6.9-.4,1.3.6,1.7A40.1,40.1,0,0,0,99.5,111.3Zm-.1-43a6.9,6.9,0,0,0,7-6.8,7,7,0,1,0-13.9,0A6.8,6.8,0,0,0,99.4,68.3Z"/><rect class="cls-1" x="1" y="1" width="196.9" height="195.89" rx="12"/><text class="cls-2" transform="translate(20.3 26.3) scale(1.01 1)">2</text><ellipse class="cls-3" cx="23.9" cy="22.4" rx="10.9" ry="10.9"/></g></g></svg>