<svg xmlns="http://www.w3.org/2000/svg" viewBox="0 0 118.4 67.8"><g id="Layer_2" data-name="Layer 2"><g id="Layer_1-2" data-name="Layer 1"><path d="M9,8c5.2-5.3,11.9-8,19.9-8C39.7,0,47.6,3.6,52.6,10.7A23.9,23.9,0,0,1,57,22.8H43.5a18.3,18.3,0,0,0-3.4-7c-2.4-2.8-5.9-4.2-10.7-4.2A13.1,13.1,0,0,0,18,17.5c-2.8,4-4.2,9.6-4.2,16.9s1.5,12.7,4.4,16.3a14,14,0,0,0,11.2,5.4c4.7,0,8.2-1.5,10.7-4.6a21.8,21.8,0,0,0,3.3-7.6H56.9A30.1,30.1,0,0,1,48,61.2q-7.2,6.6-18.3,6.6c-9.3,0-16.5-3-21.8-9S0,44.6,0,34.1,3,14.1,9,8Z"/><polygon points="62.7 55.9 62.7 49.6 72.7 49.6 72.7 39.6 79.2 39.6 79.2 49.6 89.2 49.6 89.2 55.9 79.2 55.9 79.2 66 72.7 66 72.7 55.9 62.7 55.9"/><polygon points="91.9 55.9 91.9 49.6 101.9 49.6 101.9 39.6 108.4 39.6 108.4 49.6 118.4 49.6 118.4 55.9 108.4 55.9 108.4 66 101.9 66 101.9 55.9 91.9 55.9"/></g></g></svg>