<svg xmlns="http://www.w3.org/2000/svg" viewBox="0 0 483 27"><defs><style>.cls-1{fill:none;stroke:#000;stroke-miterlimit:10;}</style></defs><g id="Layer_2" data-name="Layer 2"><g id="Layer_1-2" data-name="Layer 1"><path d="M76.7,6.6a5.2,5.2,0,0,1,1.8,3.5h-2a4.2,4.2,0,0,0-1.4-2.4,4.4,4.4,0,0,0-2.8-.8,4.4,4.4,0,0,0-3.6,1.6,7.1,7.1,0,0,0-1.4,4.8,6.4,6.4,0,0,0,1.3,4.2,4.3,4.3,0,0,0,3.7,1.7,4,4,0,0,0,3.4-1.7,8.5,8.5,0,0,0,.9-2.4h2A6.7,6.7,0,0,1,76.8,19,6.1,6.1,0,0,1,72,21a6.3,6.3,0,0,1-4.4-1.6c-1.6-1.4-2.4-3.6-2.4-6.5A8.5,8.5,0,0,1,67,7.4a6.6,6.6,0,0,1,5.3-2.3A6,6,0,0,1,76.7,6.6Z"/><path d="M93.5,7.7A8.1,8.1,0,0,1,95,12.8a9.3,9.3,0,0,1-1.7,5.6A6.8,6.8,0,0,1,87.6,21a6.6,6.6,0,0,1-5.5-2.3,8.4,8.4,0,0,1-1.8-5.6,9.1,9.1,0,0,1,1.5-5.2,7.7,7.7,0,0,1,11.7-.2Zm-1.8,9.6a8.4,8.4,0,0,0,1.2-4.5,6.3,6.3,0,0,0-1.4-4.2,4.7,4.7,0,0,0-3.8-1.7,5.3,5.3,0,0,0-3.8,1.6,6.9,6.9,0,0,0-1.5,4.8,6.8,6.8,0,0,0,1.3,4.2,4.8,4.8,0,0,0,4.1,1.7A4.2,4.2,0,0,0,91.7,17.3Z"/><path d="M97.4,5.5h2.4l7.6,12.2V5.5h2V20.6h-2.3L99.4,8.4V20.6h-2Z"/><path d="M123.6,5.5V7.3h-5.1V20.6h-2.1V7.3h-5.1V5.5Z"/><path d="M125.6,5.5h11V7.4h-9v4.5h8.3v1.8h-8.3v5.1h9.2v1.8H125.6Z"/><path d="M139.4,5.5h2.4l7.6,12.2V5.5h2V20.6h-2.3L141.4,8.4V20.6h-2Z"/><path d="M155.9,15.7a5.3,5.3,0,0,0,.6,2.1,4.1,4.1,0,0,0,3.6,1.5,6.6,6.6,0,0,0,2.1-.3,2.3,2.3,0,0,0,1.8-2.3,1.8,1.8,0,0,0-.7-1.7,6.6,6.6,0,0,0-2.5-.9l-2-.5a8.6,8.6,0,0,1-2.9-1,3.2,3.2,0,0,1-1.4-2.8,4.2,4.2,0,0,1,1.4-3.3,5.7,5.7,0,0,1,4-1.3,6.5,6.5,0,0,1,4,1.1,4.3,4.3,0,0,1,1.7,3.7h-1.9a3.8,3.8,0,0,0-.7-1.9,4.8,4.8,0,0,0-5.8-.4,2.5,2.5,0,0,0-.8,1.7,1.9,1.9,0,0,0,1,1.7l2.7.8,2.1.5a6.7,6.7,0,0,1,2.4.9,3.7,3.7,0,0,1,1.4,3.1,4,4,0,0,1-1.8,3.6,8.2,8.2,0,0,1-4.2,1,6,6,0,0,1-4.4-1.4,4.8,4.8,0,0,1-1.6-3.9Z"/><path d="M177.7,5.5H180l5.4,15.1h-2.2l-1.5-4.5h-6l-1.6,4.5H172Zm3.3,8.9-2.3-6.6-2.4,6.6Z"/><path d="M187.5,5.5h7a7.9,7.9,0,0,1,2.9.5,3.7,3.7,0,0,1,2.1,3.6,3.8,3.8,0,0,1-.6,2.2,5,5,0,0,1-1.5,1.4,3,3,0,0,1,1.3.9,4.3,4.3,0,0,1,.5,1.9v2.1a9.7,9.7,0,0,0,.2,1.2,1.4,1.4,0,0,0,.6,1v.3h-2.5a4.3,4.3,0,0,1-.1-.5,3.5,3.5,0,0,1-.1-1.2V16.4a2.4,2.4,0,0,0-1.1-2,4.4,4.4,0,0,0-1.9-.3h-4.6v6.5h-2.1Zm6.8,6.9a4.9,4.9,0,0,0,2.3-.5,2.6,2.6,0,0,0,.8-2.1,2.2,2.2,0,0,0-1.2-2.2,3.5,3.5,0,0,0-1.6-.3h-5v5.1Z"/><path d="M202.7,5.5h10.9V7.4h-9v4.5H213v1.8h-8.4v5.1h9.2v1.8H202.7Z"/><path d="M233.1,6.6a5.5,5.5,0,0,1,1.7,3.5h-2a4.1,4.1,0,0,0-1.3-2.4,4.7,4.7,0,0,0-2.8-.8,4.4,4.4,0,0,0-3.6,1.6,7.1,7.1,0,0,0-1.4,4.8,7,7,0,0,0,1.2,4.2,4.5,4.5,0,0,0,3.7,1.7,4.1,4.1,0,0,0,3.5-1.7,8.5,8.5,0,0,0,.9-2.4h2a6.7,6.7,0,0,1-1.8,3.9,6.3,6.3,0,0,1-4.8,2,6.1,6.1,0,0,1-4.4-1.6c-1.6-1.4-2.4-3.6-2.4-6.5a8.5,8.5,0,0,1,1.8-5.5,6.5,6.5,0,0,1,5.2-2.3A6.3,6.3,0,0,1,233.1,6.6Z"/><path d="M249.9,7.7a8.1,8.1,0,0,1,1.5,5.1,9.3,9.3,0,0,1-1.7,5.6,6.8,6.8,0,0,1-5.8,2.6,6.5,6.5,0,0,1-5.4-2.3,8.4,8.4,0,0,1-1.8-5.6,9.1,9.1,0,0,1,1.5-5.2A6.7,6.7,0,0,1,244,5.1,7,7,0,0,1,249.9,7.7Zm-1.8,9.6a8.4,8.4,0,0,0,1.2-4.5,6.3,6.3,0,0,0-1.4-4.2,4.7,4.7,0,0,0-3.8-1.7,5.1,5.1,0,0,0-3.8,1.6,6.9,6.9,0,0,0-1.5,4.8,6.8,6.8,0,0,0,1.3,4.2,4.8,4.8,0,0,0,4.1,1.7A4.2,4.2,0,0,0,248.1,17.3Z"/><path d="M253.8,5.5h2.4l7.6,12.2V5.5h2V20.6h-2.3L255.7,8.4V20.6h-1.9Z"/><path d="M279.9,5.5V7.3h-5V20.6h-2.1V7.3h-5.1V5.5Z"/><path d="M284.6,5.5h2.3l5.5,15.1h-2.2l-1.6-4.5h-5.9L281,20.6h-2Zm3.4,8.9-2.3-6.6-2.4,6.6Z"/><path d="M294.7,5.5h2.1V20.6h-2.1Z"/><path d="M300.1,5.5h2.4l7.6,12.2V5.5H312V20.6h-2.2L302,8.4V20.6h-1.9Z"/><path d="M315.4,5.5h11V7.4h-9v4.5h8.4v1.8h-8.4v5.1h9.2v1.8H315.4Z"/><path d="M329.4,5.5h6.1a6.1,6.1,0,0,1,4.8,2.2,8.5,8.5,0,0,1,1.5,5.1,10.5,10.5,0,0,1-.9,4.4,5.6,5.6,0,0,1-5.5,3.4h-6ZM335,18.9a4,4,0,0,0,1.7-.3,3.3,3.3,0,0,0,2-1.5,6.9,6.9,0,0,0,.9-2.3,9.2,9.2,0,0,0,.1-1.6,7.9,7.9,0,0,0-1.1-4.4A4.1,4.1,0,0,0,335,7.3h-3.6V18.9Z"/><path d="M350.7,5.5h2.1V20.6h-2.1Z"/><path d="M356.1,5.5h2.4l7.6,12.2V5.5H368V20.6h-2.2L358,8.4V20.6h-1.9Z"/><path d="M372.6,15.7a3.3,3.3,0,0,0,.6,2.1,4.1,4.1,0,0,0,3.6,1.5,7.6,7.6,0,0,0,2.1-.3,2.3,2.3,0,0,0,1.8-2.3,1.9,1.9,0,0,0-.8-1.7,5.5,5.5,0,0,0-2.4-.9l-2.1-.5a8.8,8.8,0,0,1-2.8-1,3.2,3.2,0,0,1-1.4-2.8,3.9,3.9,0,0,1,1.4-3.3,5.4,5.4,0,0,1,4-1.3,6.7,6.7,0,0,1,4,1.1,4.2,4.2,0,0,1,1.6,3.7h-1.9a3.8,3.8,0,0,0-.6-1.9,3.9,3.9,0,0,0-3.2-1.2,3.7,3.7,0,0,0-2.6.8,2.5,2.5,0,0,0-.8,1.7,1.9,1.9,0,0,0,.9,1.7l2.8.8,2.1.5a5.5,5.5,0,0,1,2.3.9,3.5,3.5,0,0,1,1.5,3.1,4,4,0,0,1-1.8,3.6,8.8,8.8,0,0,1-4.3,1,6.3,6.3,0,0,1-4.4-1.4,5.1,5.1,0,0,1-1.5-3.9Z"/><path d="M385.7,5.5h2.1V20.6h-2.1Z"/><path d="M391.2,5.5h6.1a5.8,5.8,0,0,1,4.8,2.2,8.5,8.5,0,0,1,1.5,5.1,10.5,10.5,0,0,1-.9,4.4,5.4,5.4,0,0,1-5.4,3.4h-6.1Zm5.7,13.4a4.3,4.3,0,0,0,1.7-.3,3.1,3.1,0,0,0,1.9-1.5,6.9,6.9,0,0,0,.9-2.3,10,10,0,0,0,.2-1.6,7.2,7.2,0,0,0-1.2-4.4,4,4,0,0,0-3.5-1.5h-3.7V18.9Z"/><path d="M406.5,5.5h10.9V7.4h-9v4.5h8.4v1.8h-8.4v5.1h9.2v1.8H406.5Z"/><circle cx="14" cy="14" r="13"/><rect class="cls-1" x="0.5" y="0.5" width="482" height="26" rx="12"/></g></g></svg>