<svg xmlns="http://www.w3.org/2000/svg" viewBox="0 0 198.9 197.9"><defs><style>.cls-1,.cls-3{fill:none;stroke:#000;stroke-miterlimit:10;}.cls-1{stroke-width:2px;}.cls-2{font-size:12.86px;font-family:Helvetica-Bold, Helvetica;font-weight:700;}</style></defs><g id="Layer_2" data-name="Layer 2"><g id="Layer_1-2" data-name="Layer 1"><rect class="cls-1" x="1" y="1" width="196.9" height="195.89" rx="12"/><text class="cls-2" transform="translate(20.4 26.3) scale(1.01 1)">3</text><ellipse class="cls-3" cx="24" cy="22.4" rx="10.9" ry="10.9"/><path d="M109.1,14.4a23.2,23.2,0,0,1,4.4,11.3c1,7.3-1.9,13.3-6.7,18.5s-8.8,8.1-13.5,12a75.4,75.4,0,0,0-5.9,5.5,9.1,9.1,0,0,0-2.3,7.9c.9,7.7,3.5,14.8,6.8,21.8.4,1,1.5,2.1.2,3.1s-2.1-.3-2.9-1c-5.5-4.7-10.3-10-13.5-16.6s-3-13.6,1.4-20.1A55.1,55.1,0,0,1,90,44.2c3.7-2.7,7.5-5.2,10.9-8.2s5.8-8.7,6.4-14.1a27.2,27.2,0,0,0-.1-5.7,2.3,2.3,0,0,1,.5-1.8Z"/><path d="M83.8,154.8a196.3,196.3,0,0,1-27.6-1.4,44.1,44.1,0,0,1-11.4-2.7,9.9,9.9,0,0,1-4.1-2.9c-2-2.6-1.4-5.5,1.4-7.1a26.5,26.5,0,0,1,9.2-2.7c3.4-.5,6.8-.7,10.3-1,.9-.1,1.8,0,2,1.1s-.7,1.5-1.5,1.6a54.4,54.4,0,0,0-9,2.5l-.6.2c-.4.2-1.2.3-1.2.8s.8.7,1.3.9a72.3,72.3,0,0,0,13.9,2.5,182.7,182.7,0,0,0,24.6,1.1c14-.3,27.9-1.3,41.6-4.8l4-1.3c.8-.4,1.3-.9.9-1.9a1.4,1.4,0,0,1,.5-1.7,1.7,1.7,0,0,1,1.9.3,4.4,4.4,0,0,1,0,7.3,21.2,21.2,0,0,1-5.6,2.9c-6.4,2.4-13.2,3.6-20,4.6A223.4,223.4,0,0,1,83.8,154.8Z"/><path d="M77.7,110.8c-6.3-.2-12.5-.6-18.6-2.3a20.4,20.4,0,0,1-5.2-2.4c-3.6-2.2-3.6-6.2,0-8.4s6.3-2.3,9.6-2.9a103.5,103.5,0,0,1,11.2-.9h1.1c.8.1,1.5.4,1.6,1.3s-.5,1.3-1.3,1.5a57.6,57.6,0,0,0-6.8,1.9L65.6,100c-.3.2-.9.3-.8.7s.6.5,1,.6a79.5,79.5,0,0,0,9.7.9,206.2,206.2,0,0,0,20.8,0c8.5-.4,17.1-.9,25.5-2.9l1-.2a1.4,1.4,0,0,1,1.5.9,1.1,1.1,0,0,1-.4,1.5,11.2,11.2,0,0,1-2.9,1.9c-6.2,3.4-13,5.1-20,6.2A139.4,139.4,0,0,1,77.7,110.8Z"/><path d="M121.3,44.9c.8,0,1.3.2,1.5.7a1.2,1.2,0,0,1-.2,1.5l-1.8,1.5a102.6,102.6,0,0,0-13,11.7,24.7,24.7,0,0,0-2.1,2.7,7.8,7.8,0,0,0,.1,9.2c1.8,2.8,3.7,5.4,4.7,8.6a12.8,12.8,0,0,1-1.2,10.8,29,29,0,0,1-7.2,8c-.7.4-1.4,1-2.2.3s-.5-1.4-.2-2.2a21.9,21.9,0,0,0,1.7-5.5,6.3,6.3,0,0,0-1.3-5.6,64.1,64.1,0,0,1-3.9-5.2,21.8,21.8,0,0,1-3.3-14.1,11.5,11.5,0,0,1,2.8-6A38.3,38.3,0,0,1,106.8,52a87.6,87.6,0,0,1,13-6.5Z"/><path d="M90.6,131.1c5.9.3,11.4-1,16.9-1.9a4.7,4.7,0,0,1,3.3.5c1.9,1.3,3.9,2.4,5.8,3.6s1.4.8,1.3,1.7-.9,1.3-1.7,1.6a68.8,68.8,0,0,1-16.1,3.9,79.5,79.5,0,0,1-24.8-1.2,18.8,18.8,0,0,1-6.8-2.6c-1.8-1.3-3-2.9-2.7-5.2s1.8-3.3,3.7-4a15.8,15.8,0,0,1,4.2-.9c1.5,0,2.1.7,1.6,2.1s.3.8.7.9a40.8,40.8,0,0,0,7,1.1A49.7,49.7,0,0,0,90.6,131.1Z"/><path d="M86.2,116.7a113.2,113.2,0,0,0,25.6-3,3,3,0,0,1,2.6.4l4.8,3.4c.6.5,1.2,1,1,1.8s-.8,1-1.5,1.2c-5.7,1.2-11.5,2.4-17.2,3.2A101.3,101.3,0,0,1,86,125c-6.9,0-13.6-.6-20-3.3a8.2,8.2,0,0,1-3.5-2.3,3.3,3.3,0,0,1,.1-4.8c2.2-2.2,5.1-2.8,8-3.4a1.2,1.2,0,0,1,1.3.7,1.2,1.2,0,0,1-.4,1.5,1,1,0,0,1-.5.4c-.4.3-1.1.5-1,1s.9.6,1.4.7C76.1,116.6,80.9,116.7,86.2,116.7Z"/><path d="M99.9,162.1a187.1,187.1,0,0,1-37.2-3.5H62c-.8-.2-1.5-.6-1.4-1.6s.9-1.2,1.7-1.2c2.6.1,5.2,0,7.8.2,4.3.3,8.7.2,13,.3,8.1.2,16.2.1,24.3-.1s18.3-.8,27.1-4a37,37,0,0,0,10.8-5.6c.6-.5,1.3-1,2.1-.5s.6,1.5.3,2.3c-1.3,3.4-3.8,5.6-6.9,7.4a43,43,0,0,1-14,4.3A169.5,169.5,0,0,1,99.9,162.1Z"/><path d="M149.3,104.5a13.2,13.2,0,0,1-4.8,10.1c-4.4,3.9-9.6,6-15.1,7.7-1.1.4-2.2.6-3.3.9a1.4,1.4,0,0,1-1.9-.6c-.5-.8,0-1.4.6-1.9a83,83,0,0,0,8-6.4,32.1,32.1,0,0,0,5.6-6.6c2-3.3,1.2-6.3-2.2-8.2a17.1,17.1,0,0,0-7-2h-.9c-.9-.1-1.9,0-2.2-1.2s.9-1.6,1.7-2c3.5-1.4,7-2.5,10.8-2.1s8.2,3.4,9.7,8.1A12.6,12.6,0,0,1,149.3,104.5Z"/></g></g></svg>