<svg xmlns="http://www.w3.org/2000/svg" viewBox="0 0 128 144.1"><g id="Layer_2" data-name="Layer 2"><g id="Layer_1-2" data-name="Layer 1"><path d="M69.6,0h.6L72,1.1l54.4,31.6a2.6,2.6,0,0,1,1.6,2.5v64c0,1.8-.2,1.9-1.7,1L106.8,89.4a2.7,2.7,0,0,1-1.5-2.7c.1-8,0-16,0-24.1,0-1.9-.6-2.3-2.3-1.3L77.5,76a3.6,3.6,0,0,0-1.9,3.3c.1,9.8,0,19.6,0,29.5,0,2.3.6,2.6,2.6,1.4L98.7,98.3a2.4,2.4,0,0,1,2.7,0l19.7,11.4c1.4.9,1.4,1,.1,1.8L65.4,143.7a2.3,2.3,0,0,1-2.6,0L7.4,111.6c-1.6-1-1.6-1,0-1.9L26.7,98.4a2.6,2.6,0,0,1,3,0l20.6,11.9c1.7,1,2.1.7,2.1-1.3,0-9.9-.1-19.8,0-29.7a3.7,3.7,0,0,0-2.2-3.7L25.5,61.3c-2.1-1.2-2.8-.8-2.8,1.6V86.4a2.6,2.6,0,0,1-1.6,2.7L2,100.2l-1,.6c-.5.3-.9.1-.9-.5A4.9,4.9,0,0,1,0,99.1V35.6a3,3,0,0,1,1.8-3L43.9,8.4,58.4,0h.5A7.6,7.6,0,0,1,59,1.5c0,7.6,0,15.2.1,22.7a2.9,2.9,0,0,1-1.6,2.7L37,38.7c-1.9,1.1-1.9,1.7.1,2.9L62.3,56.2a3.5,3.5,0,0,0,4.1-.1L87.6,43.9l4.5-2.7c1.1-.7,1.1-1.4.1-2.1l-1.6-1L71.2,26.9a2.9,2.9,0,0,1-1.7-3c.1-4.5,0-9.1.1-13.6Z"/></g></g></svg>