<svg xmlns="http://www.w3.org/2000/svg" viewBox="0 0 198.9 197.9"><defs><style>.cls-1,.cls-3{fill:none;stroke:#000;stroke-miterlimit:10;}.cls-1{stroke-width:2px;}.cls-2{font-size:12.86px;font-family:Helvetica-Bold, Helvetica;font-weight:700;}</style></defs><g id="Layer_2" data-name="Layer 2"><g id="Layer_1-2" data-name="Layer 1"><path d="M105.2,23.6h.6l1.8,1.1L162,56.3a2.5,2.5,0,0,1,1.6,2.5v64c0,1.8-.2,1.9-1.7,1L142.4,113a2.8,2.8,0,0,1-1.5-2.7V86.2c0-1.9-.6-2.3-2.3-1.3L113.1,99.6a3.5,3.5,0,0,0-1.9,3.3v29.4c0,2.3.6,2.6,2.6,1.5l20.5-11.9a2.4,2.4,0,0,1,2.7,0l19.7,11.4c1.4.8,1.4,1,0,1.8L101,167.3a2.4,2.4,0,0,1-2.6,0Q70.8,151.1,43,135.1c-1.6-.9-1.6-1,0-1.9L62.3,122a2.6,2.6,0,0,1,3-.1l20.6,12c1.7,1,2.1.7,2.1-1.3,0-9.9-.1-19.8,0-29.7a3.8,3.8,0,0,0-2.2-3.7L61.1,84.9c-2.1-1.2-2.8-.8-2.8,1.6,0,7.8-.1,15.7,0,23.5a2.9,2.9,0,0,1-1.6,2.7c-6.4,3.6-12.7,7.4-19.1,11.1l-1,.5c-.5.3-.9.2-.9-.5a3.7,3.7,0,0,1-.1-1.1V59.2a3,3,0,0,1,1.7-3L79.5,32,94,23.6h.5a7.6,7.6,0,0,1,.1,1.5c0,7.6,0,15.1.1,22.7a2.6,2.6,0,0,1-1.6,2.6L72.6,62.3c-1.9,1.1-1.9,1.7,0,2.9L97.8,79.8a3.8,3.8,0,0,0,4.2-.1l21.2-12.3,4.5-2.6c1.1-.7,1.1-1.4.1-2.1l-1.6-1L106.8,50.5a3,3,0,0,1-1.7-3c.1-4.5,0-9.1,0-13.7S105.2,27,105.2,23.6Z"/><rect class="cls-1" x="1" y="1" width="196.9" height="195.89" rx="12"/><text class="cls-2" transform="translate(33.8 26.3) scale(1.01 1)">1</text><ellipse class="cls-3" cx="37.4" cy="22.4" rx="10.9" ry="10.9"/></g></g></svg>