<svg xmlns="http://www.w3.org/2000/svg" viewBox="0 0 383.7 528.6"><defs><style>.cls-1{fill:#fff;}</style></defs><g id="Layer_2" data-name="Layer 2"><g id="Layer_1-2" data-name="Layer 1"><path d="M62,454.7c-2.4,2.1-5.9,3.1-10.4,3.1H43v14.8H34.4V431.3H52.2a14.6,14.6,0,0,1,9.8,3.2q3.6,3.2,3.6,9.9C65.6,449.3,64.4,452.7,62,454.7Zm-6.6-14.8a6.5,6.5,0,0,0-4.6-1.4H43v12.1h7.8a6.5,6.5,0,0,0,4.6-1.4c1.1-1,1.6-2.6,1.6-4.8S56.5,440.8,55.4,439.9Z"/><path d="M104.4,469c-3.2,3.2-7.7,4.8-13.6,4.8s-10.4-1.6-13.5-4.8S71,459.3,71,451.9s2.1-13.2,6.3-17,7.6-4.9,13.5-4.9,10.4,1.6,13.6,4.9,6.2,9.4,6.2,17S108.5,465,104.4,469ZM99,462.7q3-3.7,3-10.8c0-4.6-1-8.2-3-10.7a9.8,9.8,0,0,0-8.2-3.8,10.1,10.1,0,0,0-8.2,3.7q-3,3.9-3,10.8t3,10.8a10.2,10.2,0,0,0,8.2,3.8A10.1,10.1,0,0,0,99,462.7Z"/><path d="M143.7,432.4a10,10,0,0,1,3.9,2.9,14.5,14.5,0,0,1,2,3.4,10.2,10.2,0,0,1,.8,4.4,12.5,12.5,0,0,1-1.5,5.8,8.3,8.3,0,0,1-4.9,4,7.7,7.7,0,0,1,4.1,3.3c.8,1.4,1.2,3.5,1.2,6.4v2.8a16.9,16.9,0,0,0,.2,3.8,3.5,3.5,0,0,0,1.6,2.4v1h-9.5a15,15,0,0,1-.6-2.2,19.7,19.7,0,0,1-.4-3.5V463c-.1-2.6-.5-4.4-1.4-5.3s-2.5-1.3-4.9-1.3h-8.4v16.2h-8.5V431.3h19.8A17.8,17.8,0,0,1,143.7,432.4Zm-17.8,6.1v11.1h9.2a9.1,9.1,0,0,0,4.2-.7c1.6-.8,2.4-2.3,2.4-4.6s-.7-4.2-2.3-5.1a8.4,8.4,0,0,0-4-.7Z"/><path d="M188.7,431.3v7.3H176.4v34h-8.7v-34H155.2v-7.3Z"/><path d="M193.8,431.4h29.4v7.2H202.3v9.5h18.4v7.2H202.3v17.3h-8.5Z"/><path d="M260.7,469c-3.2,3.2-7.7,4.8-13.6,4.8s-10.4-1.6-13.5-4.8-6.3-9.7-6.3-17.1,2.1-13.2,6.3-17,7.6-4.9,13.5-4.9,10.4,1.6,13.6,4.9,6.2,9.4,6.2,17S264.8,465,260.7,469Zm-5.4-6.3q3-3.7,3-10.8c0-4.6-1-8.2-3-10.7a9.8,9.8,0,0,0-8.2-3.8,10.1,10.1,0,0,0-8.2,3.7q-3,3.9-3,10.8t3,10.8a10.2,10.2,0,0,0,8.2,3.8A10.1,10.1,0,0,0,255.3,462.7Z"/><path d="M273.5,431.3h8.6v33.9h20.7v7.4H273.5Z"/><path d="M316.5,472.6h-8.6V431.3h8.6Z"/><path d="M356.4,469c-3.2,3.2-7.7,4.8-13.6,4.8s-10.4-1.6-13.5-4.8-6.3-9.7-6.3-17.1,2.1-13.2,6.3-17,7.6-4.9,13.5-4.9,10.4,1.6,13.6,4.9,6.2,9.4,6.2,17S360.5,465,356.4,469Zm-5.4-6.3q3-3.7,3-10.8c0-4.6-1-8.2-3-10.7a9.8,9.8,0,0,0-8.2-3.8,10.1,10.1,0,0,0-8.2,3.7q-3,3.9-3,10.8t3,10.8a10.2,10.2,0,0,0,8.2,3.8A10.1,10.1,0,0,0,351,462.7Z"/><rect x="183.8" y="473.9" width="188.2" height="54.7" rx="27.4"/><path class="cls-1" d="M218.7,518.4l6.7-32.4,6.7-.8,3.9,31,7-32.4,3.5-.5-9.3,39.6-7.5.9L226.4,498l-6.7,27.1-7.5,1-4.4-34.7c-5.3,2.5-7.5,6.8-6.8,12.3a8.6,8.6,0,0,0,1.2,3.4c-3.5.4-5.6-.6-6.1-4.2-.8-6.8,7.7-14.4,16.2-15.5h2Z"/><path class="cls-1" d="M257.8,516.3c4-.5,6.1-3.1,8.3-6.3l1.7-.2c-2.3,5-6,10.3-12.7,11.1-4.8.6-8.3-1.3-9-7s1-18.5,11.4-19.8c4.5-.6,5.9,1.6,6.2,4.1.7,5.9-4.3,11.1-10.3,12.2a13.6,13.6,0,0,0,.2,2.1C254,515.9,255.3,516.6,257.8,516.3Zm.5-19.6c-2.6.4-4.4,6.1-4.8,11.2,3.9-.7,6.8-5,6.3-9.3C259.6,497.4,259.2,496.6,258.3,496.7Z"/><path class="cls-1" d="M308.7,504.6a30.1,30.1,0,0,1-6.3,6.8,8.6,8.6,0,0,1-7,4.4c-6,.8-7.5-2.8-7.9-5.8s1.3-5.1,3-5.3,2.8.3,2.9,1.8a2.4,2.4,0,0,1-2.1,2.6,1.7,1.7,0,0,1-1.5-.5c.4,2.4,1.5,3.7,3.5,3.4s3-1.6,2.6-5.1-1.2-4.4-2.9-13.7c-1.9,3.9-4.3,6.5-7.1,7.9.3,6.2-2,16.2-11.9,17.4-4.7.6-7.4-1.5-7.9-5.6a14,14,0,0,1,0-2.9l2.2-26.1,7.3-2-.9,11.8c1.9-1.6,2.9-1.9,3.9-2,3.4-.4,6,1.3,6.9,6.9,2.5-.8,4.7-4,6.9-9l7.4-2c2.2,13,3,15,3.4,18.3a12.8,12.8,0,0,1,.1,1.9,34,34,0,0,0,3.3-2.9ZM280,497.9c-.5-1.5-1.5-2.5-2.7-2.4a5.5,5.5,0,0,0-2.9,1.3l-1.2,13.3v1.2c.2,1.4,1.2,2.2,3,1.9s4.6-6.2,4.5-11.2a2.1,2.1,0,0,1-1-1.9A3.1,3.1,0,0,1,280,497.9Z"/><path class="cls-1" d="M315.3,487.2l-1.5,17.7a4.8,4.8,0,0,0,0,1.7c.2,1.4.9,1.8,2.3,1.6s3.6-2.4,4-5.1l2.1-.2c-1.8,8.6-6.7,10.3-9.4,10.7s-5.7-1.1-6.2-5.4a18.2,18.2,0,0,1,0-3.3l1.4-16.8Zm-3.7-10.5a4.1,4.1,0,0,1,4.6,3.5,4.1,4.1,0,0,1-3.6,4.6,4.1,4.1,0,0,1-1-8.1Z"/><path class="cls-1" d="M329.5,477.3l-.7,8.2,3-.4v2.1l-3.1.4-1.3,15.6v1.6c.2,1.5.9,1.8,2.4,1.7s3.5-2.5,4-5.1l2.1-.3c-1.9,8.7-6.7,10.4-9.5,10.8s-5.6-1.2-6.2-5.4a19.2,19.2,0,0,1,0-3.4l1.2-14.6-1.6.2v-2.1l1.7-.2.6-7.2Z"/><path class="cls-1" d="M344.2,504.7c1.9-.2,4.2-1.8,5.6-3.4-.3,5.9-3.8,8.1-7.8,8.6s-8.2-1.3-8.9-7.1,1-18.4,11.4-19.8c4.5-.5,5.9,1.7,6.2,4.2.7,5.9-4.3,11-10.3,12.2a7.1,7.1,0,0,0,.1,1.5C340.9,504.1,342.4,504.9,344.2,504.7Zm1-19c-2.5.3-4.3,6.2-4.8,11.2,4-.7,6.9-5.1,6.4-9.3C346.6,486.3,346.2,485.5,345.2,485.7Z"/><path d="M383.7,207.8c-1.3,8.6-2.3,17.2-4.1,25.8-.8,3.6-2.3,5-6,4.9H11.8c-6.2,0-6.3,0-7.5-5.8a195.9,195.9,0,0,1,0-81.4c1.2-5.7,1.3-5.8,7.1-5.8H371.7c6.9,0,7.1,0,8.2,6.7s2.5,16,3.8,24ZM117.6,167.6a5.7,5.7,0,0,0-1-3.9,5.6,5.6,0,0,0-5.4-2.7c-2.7.3-4.4,2-5.4,4.6-3.4,9.7-6.9,19.3-10.4,28.9-.3,1-.4,2.7-1.6,2.7s-1.5-1.7-1.9-2.7c-3.4-9.4-6.8-18.8-10.1-28.2-1-3-2.7-5.3-6-5.4s-5.2,2.3-6.3,5.5c-3.3,9.4-6.7,18.8-10.1,28.2-.4,1-.4,2.6-1.6,2.7s-1.5-1.7-1.9-2.8c-3.5-9.5-6.8-19-10.3-28.5-1.5-4.3-4.7-6-8-4.6s-4.6,4.4-3.1,8.7c5.6,15.7,11.3,31.4,16.9,47.2,1.1,3.2,2.7,5.8,6.4,5.8s5.1-2.7,6.1-5.7q5-14.1,10.2-28.2c.3-1,.3-2.6,1.7-2.5s1.2,1.6,1.5,2.5c3.4,9.3,6.8,18.7,10.1,28.1,1.1,3.1,2.7,5.7,6.2,5.7s5.3-2.5,6.4-5.7l16.8-46.9A28.3,28.3,0,0,0,117.6,167.6Zm173.3,30.2c-2-1.2-2-2.7-2.5-4l-9.9-27.4c-1.6-4.5-4.7-6.3-8.1-5s-4.7,4.6-3.2,9c5.6,15.6,11.3,31.2,16.8,46.9,1.2,3.2,2.9,5.8,6.5,5.7s5.1-2.6,6.1-5.6c3.2-9.2,6.5-18.4,9.9-27.5.4-1.2.3-3.2,2-3.1s1.4,1.9,1.8,3.1l10.4,28.8c1,2.8,3,4.4,5.9,4.4a6,6,0,0,0,5.5-4.4c5.9-16.5,11.9-33.1,17.8-49.7a5.6,5.6,0,0,0,.2-3.6c-.9-2.7-2.7-4.3-5.4-4.4s-5.1,1.7-6.1,4.6l-10.2,28.2c-.5,1.3-.5,3-2.1,3.7-1.4-1-1.5-2.6-2-4L314.4,166c-1-3-2.8-5.1-6.1-5.1s-4.9,2.1-5.9,5c-2,5.6-4,11.3-6.1,16.9S292.8,192.6,290.9,197.8Zm-57.2-29.5c.3-3.2-.4-5.2-2.7-6.5a5.5,5.5,0,0,0-6,.1c-1.9,1.2-2.7,3.2-3.4,5.2l-9.9,27.5c-.3,1-.4,2.6-1.6,2.7s-1.4-1.6-1.7-2.6c-3.3-8.9-6.5-17.9-9.7-26.8-.2-.7-.5-1.4-.7-2.1-1-2.9-3-4.8-6-4.8s-5,2-6,4.9c-3.4,9.7-6.9,19.5-10.5,29.2-.3.9-.3,2.3-1.6,2.2s-1.1-1.3-1.4-2.1l-5.4-15.1c-1.8-5.1-3.5-10.2-5.6-15.1-1.3-3.4-4.2-4.7-7.2-3.7s-4.6,3.6-3.9,7.4a29.9,29.9,0,0,0,1,3.2c3,8.3,5.9,16.5,8.9,24.7s5.2,14.3,7.7,21.5c1,2.9,2.9,4.9,6,4.9s4.9-2,5.9-4.8l1.5-3.9c3-8.3,5.9-16.7,9-25,.3-1,.3-2.6,1.7-2.6s1.2,1.7,1.6,2.7c3.4,9.3,6.7,18.5,10,27.8,1.1,3.2,2.8,5.9,6.5,5.8s5.1-2.6,6.1-5.7l16.5-45.8C233.2,170.2,233.5,168.9,233.7,168.3Z"/><path d="M200.3,0c26.5,5.3,43.3,23.1,57.3,44.6A175.5,175.5,0,0,1,268.8,65c1.2,2.5.7,3.5-2,4.1A321.1,321.1,0,0,1,221.1,76l-19,1.2c-2.5.2-4.4,0-4.4-3.4q.2-36.1.1-72.3A7.7,7.7,0,0,1,198,0Z"/><path d="M198,384c-.1-6-.2-12-.2-18-.1-18.3,0-36.7-.1-55.1,0-2.9.7-4.3,4-4.1a367.8,367.8,0,0,1,58.2,6.6l7.7,1.7c1.9.4,2.4,1.4,1.5,3.3-11.5,23.6-25.4,45.3-49.2,58.7-6.1,3.4-12.8,5.3-19.6,6.9Z"/><path d="M183.8,384c-26.5-5.3-43.4-23.1-57.4-44.6A191.1,191.1,0,0,1,115.3,319c-1.3-2.4-.7-3.5,1.9-4.1a312.1,312.1,0,0,1,46.2-6.9l18.2-1.1c2.2-.2,4-.1,4,2.9-.1,24.5-.1,49-.2,73.5,0,.2-.1.5-.1.7Z"/><path d="M185.3,0c.1,5.2.2,10.5.2,15.7.1,19.1,0,38.2.1,57.4,0,2.6-.3,4.3-3.6,4.1a372,372,0,0,1-57.8-6.6l-7.7-1.7q-2.9-.6-1.5-3.3c11.2-23.2,24.9-44.4,47.8-58,6.5-3.8,13.7-5.9,21-7.6Z"/><path d="M45.7,133.7H13.6c-4.3,0-4.5-.3-3.2-4.1,8.8-25.8,22.7-48.5,41-68.6,1.6-1.7,3-1.8,4.9-.8A220.2,220.2,0,0,0,93.8,75.1c2.9.9,3.3,2.2,2.3,4.9a278.9,278.9,0,0,0-13.2,50.2c-.5,2.8-2,3.6-4.6,3.6Z"/><path d="M45.9,250.3c10.7,0,21.4.1,32.1-.1,3.1,0,4.4,1.1,4.9,4.1a292,292,0,0,0,12.8,48.8c1.7,4.6,1.6,4.6-3.1,6.1a225.4,225.4,0,0,0-35.7,14.3c-2.3,1.2-3.9,1.2-5.8-.9a194.7,194.7,0,0,1-40.4-67.2c-1.7-5-1.6-5.1,3.8-5.1Z"/><path d="M338.1,133.7H305.9c-2.8,0-4.3-.9-4.8-3.8a265.3,265.3,0,0,0-13-49.5c-1.2-3.3-.6-4.6,2.7-5.6a215.4,215.4,0,0,0,37.1-14.7c2.1-1.1,3.4-.7,4.9.9a196.4,196.4,0,0,1,40.9,68.6c1.2,3.5,0,4.1-3.1,4.1Z"/><path d="M338.6,250.3c10.7,0,21.5.1,32.2-.1,3.4,0,4,1,2.9,4.2a196.4,196.4,0,0,1-40.8,68.3c-1.5,1.7-2.9,2.3-5.1,1.1A208,208,0,0,0,290.7,309c-3.1-.9-3.9-2.1-2.7-5.3a277,277,0,0,0,13.2-49.8c.4-2.7,1.8-3.7,4.5-3.7Z"/><path d="M243.3,133.7c-13.7,0-27.4-.1-41.1.1-3.5,0-4.5-1.1-4.5-4.5q.3-18,0-36c0-3.3,1.1-4.3,4.3-4.3a339.2,339.2,0,0,0,68.8-8.7c3.3-.7,4.7,0,5.8,3.1a309.2,309.2,0,0,1,12.5,46.2c.6,3.5-.5,4.2-3.6,4.2Z"/><path d="M243.7,250.3h41.5c4.4,0,4.5.2,3.7,4.4a271.8,271.8,0,0,1-12.5,46.2c-1,2.9-2.3,3.5-5.2,2.8A336.1,336.1,0,0,0,202,295c-3.2,0-4.3-1-4.3-4.3.2-12.1.1-24.2,0-36.4,0-3,1-4.1,4.1-4.1Z"/><path d="M140,133.7H98.8c-4.3,0-4.5-.2-3.7-4.5A297.6,297.6,0,0,1,107.6,83c1.1-2.8,2.5-3.5,5.3-2.8,22.7,5.5,45.9,8.1,69.2,8.8,2.5.1,3.5,1,3.5,3.6q-.2,18.8,0,37.5c0,3.1-1.4,3.7-4.1,3.7Z"/><path d="M140.2,250.3c13.6,0,27.2.1,40.8-.1,3.6,0,4.7,1.1,4.6,4.7-.2,11.9-.2,23.7,0,35.6.1,3.5-1.1,4.4-4.5,4.5a336.4,336.4,0,0,0-67.7,8.6c-3.4.9-4.8,0-6-3.2a321.7,321.7,0,0,1-12.5-46.2c-.6-3.2.5-4,3.4-4Z"/><path d="M143.1,6.7a124.8,124.8,0,0,0-15.7,16.2,169.7,169.7,0,0,0-23.1,37.5c-2.2,4.8-2.2,4.7-7.2,3.2A258.5,258.5,0,0,1,66,51.8c-2.5-1.2-3-2.2-.7-4.2A190.7,190.7,0,0,1,140.5,6.7,20.3,20.3,0,0,1,143.1,6.7Z"/><path d="M143,377.6c-6.5-1-11.6-3-16.6-4.8A191.4,191.4,0,0,1,67,337.9c-4.6-3.9-4.6-4.1,1-6.6a240,240,0,0,1,28.6-10.8c5.5-1.6,5.5-1.6,7.8,3.4a163.3,163.3,0,0,0,27.1,42C134.9,369.7,138.6,373.2,143,377.6Z"/><path d="M242,377.1c-.2-.9.6-1.3,1.1-1.8,16-14.3,27.4-31.9,36.4-51.1,2.5-5.3,2.4-5.3,8-3.6a237.2,237.2,0,0,1,30.4,11.5c2.5,1.2,3.3,2.2.8,4.4a193.2,193.2,0,0,1-74.9,40.8C243.2,377.4,242.5,377.6,242,377.1Z"/><path d="M241.5,7.1c2.1-1,3.6,0,5.1.4a190.5,190.5,0,0,1,70.9,39c4,3.5,4,3.7-.9,5.9a273.5,273.5,0,0,1-30.1,11.4c-3.4,1.2-5.1.5-6.5-2.9a165.2,165.2,0,0,0-27.6-43A139.1,139.1,0,0,0,241.5,7.1Z"/></g></g></svg>