<svg xmlns="http://www.w3.org/2000/svg" viewBox="0 0 166.5 72.7"><defs><style>.cls-1{fill:none;}.cls-1,.cls-2{stroke:#000;stroke-miterlimit:10;}.cls-2{fill:#fff;stroke-width:0.75px;}</style></defs><g id="Layer_2" data-name="Layer 2"><g id="Layer_1-2" data-name="Layer 1"><path d="M16.1,42.2V8.2h7V21.1H36.4V8.2h7v34h-7V27H23.1V42.2Z"/><path d="M76.5,39.2c-2.6,2.6-6.3,4-11.1,4s-8.6-1.4-11.2-4S49,31.3,49,25.1s1.7-10.9,5.2-14,6.3-4,11.2-4,8.5,1.3,11.1,4,5.2,7.8,5.2,14S80,35.9,76.5,39.2ZM72.1,34c1.6-2.1,2.5-5,2.5-8.9s-.9-6.7-2.5-8.8a8.7,8.7,0,0,0-13.5,0c-1.7,2-2.5,5-2.5,8.8s.8,6.8,2.5,8.9a8.2,8.2,0,0,0,6.8,3.1A8.1,8.1,0,0,0,72.1,34Z"/><path d="M109.7,8.2h10.2v34h-6.6V16.4c.1-1.2.1-2.1.1-2.8l-6.5,28.6H100L93.6,13.6V42.2H87V8.2H97.3l6.2,26.7Z"/><path d="M151.7,14.2h-18v7.2h16.5v5.9H133.7v8.8h18.9v6.1H126.7V8.2h25Z"/><path class="cls-1" d="M142,49.8H24.5a24.1,24.1,0,0,1-24-24V24.5a24.1,24.1,0,0,1,24-24H142a24.1,24.1,0,0,1,24,24v1.3A24.1,24.1,0,0,1,142,49.8Z"/><path class="cls-2" d="M54.8,59.8a10.6,10.6,0,0,1-6.8,2H42.2v9.8H36.5V44.2H48.3a9.6,9.6,0,0,1,6.5,2.1q2.4,2.1,2.4,6.6T54.8,59.8Zm-4.3-9.9a5,5,0,0,0-3.1-.9H42.2v8h5.2a5,5,0,0,0,3.1-.9,4.2,4.2,0,0,0,1-3.2A3.8,3.8,0,0,0,50.5,49.9Z"/><path class="cls-2" d="M66.9,44.2h6.5l9.7,27.4H76.9L75.1,66H64.9l-1.8,5.6h-6Zm-.4,17.1h7L70.1,50.5Z"/><path class="cls-2" d="M105,52.8a5.6,5.6,0,0,0-3.1-4,8.3,8.3,0,0,0-3.2-.6,6.6,6.6,0,0,0-5.4,2.5c-1.5,1.7-2.2,4.2-2.2,7.5s.8,5.8,2.3,7.2a7.7,7.7,0,0,0,5.3,2.1,6.8,6.8,0,0,0,4.7-1.7,7.3,7.3,0,0,0,2.3-4.3H99.3V56.9h11.5V71.6H107l-.6-3.4a14.8,14.8,0,0,1-3,2.8,10.8,10.8,0,0,1-5.6,1.3,11.6,11.6,0,0,1-8.9-3.7c-2.4-2.6-3.6-6-3.6-10.4s1.2-8,3.6-10.7a12.5,12.5,0,0,1,9.7-4,13,13,0,0,1,8.4,2.6,9.7,9.7,0,0,1,3.7,6.7Z"/><path class="cls-2" d="M136.6,49H122v5.9h13.4v4.7H122v7.1h15.2v4.9H116.4V44.2h20.2Z"/></g></g></svg>