<svg id="Layer_1" data-name="Layer 1" xmlns="http://www.w3.org/2000/svg" viewBox="0 0 49.7 58.2"><defs><style>.cls-1{fill:none;stroke:#000;stroke-miterlimit:10;}</style></defs><path d="M409.4,94.4c-19.9,1.9-21.3,3.4-23,24.5-1.8-21.1-3.2-22.6-23.1-24.5,19.9-1.8,21.3-3.3,23.1-24.5C388.1,91.1,389.5,92.6,409.4,94.4Z" transform="translate(-363.3 -69.9)"/><path d="M413,114c-8.5,1.1-9.1,1.9-9.9,14.1-.7-12.2-1.3-13-9.9-14.1,8.6-1,9.2-1.9,9.9-14C403.9,112.1,404.5,113,413,114Z" transform="translate(-363.3 -69.9)"/><path class="cls-1" d="M399.9,102.2c-.9,1.6-7.6-.5-14.8-4.7S372.7,88.6,373.6,87s7.6.5,14.8,4.7S400.8,100.6,399.9,102.2Z" transform="translate(-363.3 -69.9)"/></svg>